Coordinates
version=1
nRows=22
nColumns=18
inDegrees=yes

Units are S.I. units (second, meters, Newtons, ...)
If the header above contains a line with 'inDegrees', this indicates whether rotational values are in degrees (yes) or radians (no).

endheader
time	ground_thorax_rot_x	ground_thorax_rot_y	ground_thorax_rot_z	ground_thorax_tx	ground_thorax_ty	ground_thorax_tz	clav_prot	clav_elev	scapula_abduction	scapula_elevation	scapula_upward_rot	scapula_winging	plane_elv	shoulder_elv	axial_rot	elbow_flexion	pro_sup
      0.00000000	      1.30479165	     -6.08567376	    -10.45236881	      0.00000000	      0.00000000	      0.00000000	    -26.26413544	     -4.02717952	    -18.01062922	     -4.44857240	     14.51430250	      4.86088627	    -31.36279167	     16.45211312	     23.69779731	      0.00000000	     34.32000000
      0.01000000	      1.33963793	     -6.12307828	    -10.50457838	      0.00000000	      0.00000000	      0.00000000	    -26.25602730	     -4.01802844	    -18.00078316	     -4.44058109	     14.51228760	      4.85930687	    -31.38023062	     16.47881621	     23.71132863	      0.00000000	     34.32000000
      0.02000000	      1.47410707	     -6.29057929	    -10.44415831	      0.00000000	      0.00000000	      0.00000000	    -26.09483904	     -3.83200514	    -17.59594778	     -4.36566934	     14.81541218	      4.73216161	    -32.04380624	     16.52125502	     23.12693407	      0.00000000	     34.32000000
      0.03000000	      1.47006359	     -6.32916379	    -10.42823075	      0.00000000	      0.00000000	      0.00000000	    -26.05864589	     -3.82861724	    -17.53419007	     -4.36111182	     14.81708505	      4.73307527	    -32.24139353	     16.61549867	     22.74004656	      0.00000000	     34.32000000
      0.04000000	      1.48196668	     -6.27192324	    -10.46786208	      0.00000000	      0.00000000	      0.00000000	    -26.12394954	     -3.85572873	    -17.54732330	     -4.42480122	     14.96868516	      4.69960495	    -32.60151945	     16.54187047	     23.19013555	      0.00000000	     34.32000000
      0.05000000	      1.63712178	     -6.33884491	    -10.37791569	      0.00000000	      0.00000000	      0.00000000	    -26.06627331	     -3.66304561	    -17.58230916	     -4.23953986	     14.83333863	      4.67348052	    -31.75481677	     16.77400781	     22.40711860	      0.00000000	     34.32000000
      0.06000000	      1.42818637	     -6.29298547	    -10.36197565	      0.00000000	      0.00000000	      0.00000000	    -26.05291238	     -3.84803897	    -17.57304692	     -4.35245304	     14.72687600	      4.76266123	    -32.67908293	     16.84006443	     22.13239580	      0.00000000	     34.32000000
      0.07000000	      1.47489036	     -6.35022268	    -10.49728979	      0.00000000	      0.00000000	      0.00000000	    -26.07631194	     -3.87552217	    -17.53290064	     -4.40610070	     14.84869061	      4.74010199	    -32.24875638	     16.82927855	     21.36443836	      0.00000000	     34.32000000
      0.08000000	      1.52289403	     -6.31949685	    -10.49588729	      0.00000000	      0.00000000	      0.00000000	    -26.06224290	     -3.86674367	    -17.52486171	     -4.39264599	     14.82577839	      4.74344508	    -32.25686894	     16.84008728	     21.39695564	      0.00000000	     34.32000000
      0.09000000	      1.79902968	     -6.55227417	    -10.48002010	      0.00000000	      0.00000000	      0.00000000	    -25.89366364	     -3.62489053	    -17.02010994	     -4.31741137	     15.29720136	      4.55532019	    -32.94094480	     16.80037117	     21.74798421	      0.00000000	     34.32000000
      0.10000000	      1.33758293	     -6.38534565	    -10.51006333	      0.00000000	      0.00000000	      0.00000000	    -25.93054862	     -4.14439689	    -17.45536426	     -4.49764317	     14.44207436	      4.94224788	    -31.88789777	     17.26795671	     19.53854839	      0.00000000	     34.32000000
      0.11000000	      1.33297573	     -6.42828778	    -10.51713018	      0.00000000	      0.00000000	      0.00000000	    -25.93521661	     -4.11838343	    -17.46139333	     -4.48172489	     14.45656918	      4.92944174	    -31.89210405	     17.22523579	     19.57337210	      0.00000000	     34.32000000
      0.12000000	      1.49654778	     -6.50524287	    -10.44680733	      0.00000000	      0.00000000	      0.00000000	    -25.92916953	     -3.84535039	    -17.19965596	     -4.41212403	     15.00007182	      4.70109641	    -32.94845310	     16.78616928	     21.21537841	      0.00000000	     34.32000000
      0.13000000	      1.53236020	     -6.44537190	    -10.47676858	      0.00000000	      0.00000000	      0.00000000	    -25.92622868	     -3.81799201	    -17.21862413	     -4.38394259	     14.97234159	      4.69933642	    -32.92318893	     16.85640595	     21.27860914	      0.00000000	     34.32000000
      0.14000000	      1.44844153	     -6.33457336	    -10.34270673	      0.00000000	      0.00000000	      0.00000000	    -25.99557652	     -3.78869795	    -17.45089768	     -4.32083591	     14.79484280	      4.72963370	    -32.91277840	     16.81263204	     22.42838563	      0.00000000	     34.32000000
      0.15000000	      1.71895663	     -6.37684923	    -10.37472481	      0.00000000	      0.00000000	      0.00000000	    -26.02491208	     -3.56031537	    -17.31273178	     -4.25522779	     15.21224958	      4.54695423	    -33.23460164	     16.51805170	     24.70027512	      0.00000000	     34.32000000
      0.16000000	      1.69064896	     -6.41503199	    -10.37737695	      0.00000000	      0.00000000	      0.00000000	    -26.02434997	     -3.56478012	    -17.32127474	     -4.25400209	     15.19413405	      4.55294164	    -33.22639542	     16.49819849	     24.71687904	      0.00000000	     34.32000000
      0.17000000	      1.19101740	     -6.44062149	    -10.42590265	      0.00000000	      0.00000000	      0.00000000	    -25.90054128	     -4.11634125	    -17.38953424	     -4.48357173	     14.47892504	      4.92549471	    -32.90745505	     16.75523306	     23.78571965	      0.00000000	     34.32000000
      0.18000000	      1.19991763	     -6.45877187	    -10.44710398	      0.00000000	      0.00000000	      0.00000000	    -25.92252526	     -4.09262997	    -17.41366513	     -4.47546051	     14.51202413	      4.90762418	    -32.90358493	     16.78308970	     23.80195620	      0.00000000	     34.32000000
      0.19000000	      1.58312075	     -6.48832699	    -10.36477251	      0.00000000	      0.00000000	      0.00000000	    -25.95354840	     -3.70676046	    -17.28227925	     -4.30645037	     14.99389109	      4.65512482	    -33.14863386	     16.68491168	     23.64665094	      0.00000000	     34.32000000
      0.20000000	      1.50999073	     -6.43604772	    -10.43543726	      0.00000000	      0.00000000	      0.00000000	    -26.01454751	     -3.80039162	    -17.37845018	     -4.37436454	     14.96459618	      4.68957599	    -33.24723048	     16.60439327	     24.02006793	      0.00000000	     34.32000000
      0.21000000	      1.56654653	     -6.51776652	    -10.41208265	      0.00000000	      0.00000000	      0.00000000	    -25.92119089	     -3.72912219	    -17.25209540	     -4.30813330	     14.94195769	      4.67737449	    -32.97425873	     16.72984019	     23.46029424	      0.00000000	     34.32000000
